<svg width="28" height="28" viewBox="0 0 28 28" fill="none" xmlns="http://www.w3.org/2000/svg">
<g id="Group 48096660">
<circle id="Ellipse 576" cx="14" cy="14" r="14" fill="white"/>
<path id="Subtract" fill-rule="evenodd" clip-rule="evenodd" d="M5.03428 24.7529C5.43485 20.4084 9.29597 17 14 17C18.704 17 22.5652 20.4084 22.9657 24.7529C26.0424 22.1848 28 18.321 28 14C28 6.26801 21.732 0 14 0C6.26801 0 0 6.26801 0 14C0 18.321 1.95759 22.1848 5.03428 24.7529ZM20 10.5C20 13.5376 17.3137 16 14 16C10.6863 16 8 13.5376 8 10.5C8 7.46243 10.6863 5 14 5C17.3137 5 20 7.46243 20 10.5Z" fill="#F26129"/>
</g>
</svg>
